# 3ds Max Wavefront OBJ Exporter v0.97b - (c)2007 guruware
# File Created: 19.06.2013 16:48:28

#
# object Sphere001
#

v  -0.0000 -0.4956 -6.1091
v  -3.5909 -0.4956 -4.9424
v  -2.4512 1.2781 -3.3738
v  -0.0000 1.2781 -4.1703
v  -5.8101 -0.4956 -1.8878
v  -3.9662 1.2781 -1.2887
v  -5.8101 -0.4956 1.8878
v  -3.9662 1.2781 1.2887
v  -3.5909 -0.4956 4.9424
v  -2.4512 1.2781 3.3738
v  -0.0000 -0.4956 6.1091
v  -0.0000 1.2781 4.1703
v  3.5909 -0.4956 4.9424
v  2.4512 1.2781 3.3738
v  5.8101 -0.4956 1.8878
v  3.9662 1.2781 1.2887
v  5.8101 -0.4956 -1.8878
v  3.9662 1.2781 -1.2887
v  3.5908 -0.4956 -4.9424
v  2.4512 1.2781 -3.3738
v  -0.0000 -4.4618 -7.1394
v  -4.1964 -4.4618 -5.7759
v  -3.9662 -2.2694 -5.4590
v  -0.0000 -2.2694 -6.7477
v  -6.7899 -4.4618 -2.2062
v  -6.4174 -2.2694 -2.0851
v  -6.7899 -4.4618 2.2062
v  -6.4174 -2.2694 2.0851
v  -4.1964 -4.4618 5.7759
v  -3.9662 -2.2694 5.4590
v  -0.0000 -4.4618 7.1394
v  -0.0000 -2.2694 6.7477
v  4.1964 -4.4618 5.7759
v  3.9662 -2.2694 5.4590
v  6.7899 -4.4618 2.2062
v  6.4174 -2.2694 2.0851
v  6.7899 -4.4618 -2.2062
v  6.4174 -2.2694 -2.0852
v  4.1964 -4.4618 -5.7759
v  3.9662 -2.2694 -5.4590
v  -0.0000 -8.4280 -6.1456
v  -3.6123 -8.4280 -4.9719
v  -3.9662 -6.6543 -5.4590
v  -0.0000 -6.6543 -6.7477
v  -5.8448 -8.4280 -1.8991
v  -6.4174 -6.6543 -2.0851
v  -5.8448 -8.4280 1.8991
v  -6.4174 -6.6543 2.0851
v  -3.6123 -8.4280 4.9719
v  -3.9662 -6.6543 5.4590
v  -0.0000 -8.4280 6.1456
v  -0.0000 -6.6543 6.7477
v  3.6123 -8.4280 4.9719
v  3.9662 -6.6543 5.4590
v  5.8448 -8.4280 1.8991
v  6.4174 -6.6543 2.0851
v  5.8448 -8.4280 -1.8991
v  6.4174 -6.6543 -2.0852
v  3.6123 -8.4280 -4.9719
v  3.9662 -6.6543 -5.4590
v  -2.4512 -10.2017 -3.3738
v  0.7575 -10.9826 -1.0426
v  -0.7575 -10.9826 1.0426
v  -3.9662 -10.2017 -1.2887
v  -0.0000 -10.2017 -4.1703
v  2.4512 -10.2017 -3.3738
v  -3.9662 -10.2017 1.2887
v  -2.4512 -10.2017 3.3738
v  3.9662 -10.2017 1.2887
v  2.4512 -10.2017 3.3738
v  3.9662 -10.2017 -1.2887
v  -0.0000 -10.2017 4.1703
v  -1.6872 1.8115 -2.3222
v  -0.0000 1.8115 -2.8704
v  -2.7299 1.8115 -0.8870
v  -2.7299 1.8115 0.8870
v  -1.6872 1.8115 2.3222
v  -0.0000 1.8115 2.8704
v  1.6872 1.8115 2.3222
v  2.7299 1.8115 0.8870
v  2.7299 1.8115 -0.8870
v  1.6872 1.8115 -2.3222
v  -1.6578 3.8240 -2.2818
v  -0.0000 3.8240 -2.8204
v  -2.6824 3.8240 -0.8716
v  -2.6824 3.8240 0.8716
v  -1.6578 3.8240 2.2818
v  -0.0000 3.8240 2.8204
v  1.6578 3.8240 2.2818
v  2.6824 3.8240 0.8715
v  2.6824 3.8240 -0.8716
v  1.6578 3.8240 -2.2818
v  -0.4314 3.8240 -0.5937
v  -0.0000 3.8240 -0.7339
v  -0.6980 3.8240 -0.2268
v  -0.6980 3.8240 0.2268
v  -0.4314 3.8240 0.5937
v  -0.0000 3.8240 0.7339
v  0.4314 3.8240 0.5937
v  0.6980 3.8240 0.2268
v  0.6980 3.8240 -0.2268
v  0.4314 3.8240 -0.5937
v  -0.7749 8.7598 -1.0665
v  -0.0000 8.7598 -1.3183
v  -1.2538 8.7598 -0.4074
v  -1.2538 8.7598 0.4074
v  -0.7749 8.7598 1.0665
v  -0.0000 8.7598 1.3183
v  0.7749 8.7598 1.0665
v  1.2538 8.7598 0.4074
v  1.2538 8.7598 -0.4074
v  0.7749 8.7598 -1.0665
v  0.2658 8.7598 0.0864
v  -0.2658 8.7598 -0.0864
# 114 vertices

vn -0.0000 0.5336 -0.8457
vn -0.4971 0.5336 -0.6842
vn -0.3968 0.7378 -0.5461
vn -0.0000 0.7378 -0.6750
vn -0.8043 0.5336 -0.2613
vn -0.6420 0.7378 -0.2086
vn -0.8043 0.5336 0.2613
vn -0.6420 0.7378 0.2086
vn -0.4971 0.5336 0.6842
vn -0.3968 0.7378 0.5461
vn -0.0000 0.5336 0.8457
vn 0.0000 0.7378 0.6750
vn 0.4971 0.5336 0.6842
vn 0.3968 0.7378 0.5461
vn 0.8043 0.5336 0.2613
vn 0.6420 0.7378 0.2086
vn 0.8043 0.5336 -0.2613
vn 0.6420 0.7378 -0.2086
vn 0.4971 0.5336 -0.6842
vn 0.3968 0.7378 -0.5461
vn -0.0000 -0.0000 -1.0000
vn -0.5878 0.0000 -0.8090
vn -0.5685 0.2542 -0.7824
vn -0.0000 0.2542 -0.9672
vn -0.9511 0.0000 -0.3090
vn -0.9198 0.2542 -0.2989
vn -0.9511 0.0000 0.3090
vn -0.9198 0.2542 0.2989
vn -0.5878 -0.0000 0.8090
vn -0.5685 0.2542 0.7824
vn -0.0000 0.0000 1.0000
vn -0.0000 0.2542 0.9672
vn 0.5878 -0.0000 0.8090
vn 0.5685 0.2542 0.7824
vn 0.9511 0.0000 0.3090
vn 0.9198 0.2542 0.2989
vn 0.9511 0.0000 -0.3090
vn 0.9198 0.2542 -0.2989
vn 0.5878 -0.0000 -0.8090
vn 0.5685 0.2542 -0.7824
vn -0.0000 -0.5288 -0.8487
vn -0.4989 -0.5288 -0.6866
vn -0.5697 -0.2459 -0.7842
vn -0.0000 -0.2459 -0.9693
vn -0.8072 -0.5288 -0.2623
vn -0.9219 -0.2459 -0.2995
vn -0.8072 -0.5288 0.2623
vn -0.9219 -0.2459 0.2995
vn -0.4989 -0.5288 0.6866
vn -0.5697 -0.2459 0.7842
vn -0.0000 -0.5288 0.8487
vn -0.0000 -0.2459 0.9693
vn 0.4989 -0.5288 0.6866
vn 0.5697 -0.2459 0.7842
vn 0.8072 -0.5288 0.2623
vn 0.9219 -0.2459 0.2995
vn 0.8072 -0.5288 -0.2623
vn 0.9219 -0.2459 -0.2995
vn 0.4989 -0.5288 -0.6866
vn 0.5697 -0.2459 -0.7842
vn -0.1563 -0.9812 -0.1135
vn -0.0000 -0.9702 -0.2422
vn -0.2304 -0.9702 0.0749
vn 0.1563 -0.9812 0.1135
vn 0.2304 -0.9702 -0.0749
vn 0.0000 -0.9702 0.2422
vn -0.1224 0.9182 -0.3768
vn -0.3205 0.9182 -0.2329
vn -0.3962 0.9182 -0.0000
vn -0.3205 0.9182 0.2329
vn -0.1224 0.9182 0.3768
vn 0.1224 0.9182 0.3768
vn 0.3205 0.9182 0.2329
vn 0.3962 0.9182 -0.0000
vn 0.3205 0.9182 -0.2329
vn 0.1224 0.9182 -0.3768
vn -0.3089 0.0236 -0.9508
vn -0.8088 0.0236 -0.5876
vn -0.9997 0.0236 -0.0000
vn -0.8088 0.0236 0.5876
vn -0.3089 0.0236 0.9508
vn 0.3089 0.0236 0.9508
vn 0.8088 0.0236 0.5876
vn 0.9997 0.0236 -0.0000
vn 0.8088 0.0236 -0.5876
vn 0.3089 0.0236 -0.9508
vn 0.0000 1.0000 0.0000
vn 0.0000 1.0000 -0.0000
vn -0.0000 1.0000 -0.0000
vn -0.0000 1.0000 0.0000
vn -0.3071 -0.1119 -0.9451
vn -0.8039 -0.1119 -0.5841
vn -0.9937 -0.1119 -0.0000
vn -0.8039 -0.1119 0.5841
vn -0.3071 -0.1119 0.9451
vn 0.3071 -0.1119 0.9451
vn 0.8039 -0.1119 0.5841
vn 0.9937 -0.1119 -0.0000
vn 0.8039 -0.1119 -0.5841
vn 0.3071 -0.1119 -0.9451
vn -0.0000 -0.7440 -0.6681
vn -0.3927 -0.7440 -0.5405
vn -0.6354 -0.7440 -0.2065
vn -0.6354 -0.7440 0.2065
vn -0.3927 -0.7440 0.5405
vn -0.0000 -0.7440 0.6681
vn 0.3927 -0.7440 0.5405
vn 0.6354 -0.7440 0.2065
vn 0.6354 -0.7440 -0.2065
vn 0.3927 -0.7440 -0.5405
# 110 vertex normals

vt 0.5821 0.8757 0.0000
vt 0.6726 0.8544 0.0000
vt 0.6794 0.9134 0.0000
vt 0.5869 0.9340 0.0000
vt 0.7604 0.8240 0.0000
vt 0.7656 0.8848 0.0000
vt 0.8478 0.7919 0.0000
vt 0.8462 0.8573 0.0000
vt 0.9400 0.7789 0.0000
vt 0.9231 0.8546 0.0000
vt 0.0352 0.7966 0.0000
vt 0.1278 0.8060 0.0000
vt 0.1320 0.8713 0.0000
vt 0.0550 0.8716 0.0000
vt 0.2164 0.8347 0.0000
vt 0.2136 0.8958 0.0000
vt 0.3053 0.8617 0.0000
vt 0.3009 0.9209 0.0000
vt 0.3966 0.8795 0.0000
vt 0.3941 0.9379 0.0000
vt 0.4895 0.8844 0.0000
vt 0.4906 0.9426 0.0000
vt 0.5708 0.7589 0.0000
vt 0.6541 0.7374 0.0000
vt 0.6658 0.7955 0.0000
vt 0.5773 0.8174 0.0000
vt 0.7390 0.7055 0.0000
vt 0.7552 0.7631 0.0000
vt 0.8282 0.6648 0.0000
vt 0.8494 0.7265 0.0000
vt 0.9257 0.6218 0.0000
vt 0.9569 0.7032 0.0000
vt 0.0433 0.6391 0.0000
vt 0.1425 0.6783 0.0000
vt 0.1236 0.7408 0.0000
vt 0.0154 0.7217 0.0000
vt 0.2331 0.7155 0.0000
vt 0.2192 0.7737 0.0000
vt 0.3192 0.7441 0.0000
vt 0.3098 0.8025 0.0000
vt 0.4033 0.7622 0.0000
vt 0.3990 0.8210 0.0000
vt 0.4872 0.7672 0.0000
vt 0.4883 0.8261 0.0000
vt 0.5531 0.6417 0.0000
vt 0.6206 0.6217 0.0000
vt 0.6424 0.6794 0.0000
vt 0.5642 0.7004 0.0000
vt 0.6904 0.5959 0.0000
vt 0.7229 0.6479 0.0000
vt 0.7622 0.5548 0.0000
vt 0.8069 0.6031 0.0000
vt 0.8218 0.4922 0.0000
vt 0.8945 0.5403 0.0000
vt 0.1420 0.5056 0.0000
vt 0.2041 0.5658 0.0000
vt 0.1613 0.6158 0.0000
vt 0.0713 0.5565 0.0000
vt 0.2774 0.6041 0.0000
vt 0.2470 0.6573 0.0000
vt 0.3481 0.6271 0.0000
vt 0.3286 0.6856 0.0000
vt 0.4164 0.6445 0.0000
vt 0.4076 0.7035 0.0000
vt 0.4848 0.6479 0.0000
vt 0.4860 0.7083 0.0000
vt 0.5989 0.5639 0.0000
vt 0.4818 0.4929 0.0000
vt 0.6122 0.4384 0.0000
vt 0.6579 0.5440 0.0000
vt 0.5420 0.5831 0.0000
vt 0.4837 0.5876 0.0000
vt 0.7174 0.5065 0.0000
vt 0.7492 0.4441 0.0000
vt 0.3676 0.5685 0.0000
vt 0.3078 0.5509 0.0000
vt 0.3493 0.4436 0.0000
vt 0.4252 0.5854 0.0000
vt 0.2469 0.5158 0.0000
vt 0.2127 0.4546 0.0000
vt 0.6857 0.9497 0.0000
vt 0.5909 0.9698 0.0000
vt 0.7716 0.9229 0.0000
vt 0.8451 0.8994 0.0000
vt 0.9045 0.8980 0.0000
vt 0.1346 0.9133 0.0000
vt 0.0752 0.9142 0.0000
vt 0.2089 0.9341 0.0000
vt 0.2960 0.9575 0.0000
vt 0.3916 0.9738 0.0000
vt 0.4914 0.9783 0.0000
vt 0.9652 0.3368 0.0000
vt 0.9851 0.3897 0.0000
vt 0.9317 0.4009 0.0000
vt 0.9178 0.3642 0.0000
vt 0.9870 0.4461 0.0000
vt 0.9330 0.4404 0.0000
vt 0.9713 0.4991 0.0000
vt 0.9209 0.4797 0.0000
vt 0.9459 0.5442 0.0000
vt 0.8942 0.5156 0.0000
vt 0.6784 0.3043 0.0000
vt 0.7204 0.2743 0.0000
vt 0.7452 0.3223 0.0000
vt 0.7123 0.3526 0.0000
vt 0.7713 0.2530 0.0000
vt 0.7829 0.3060 0.0000
vt 0.8274 0.2487 0.0000
vt 0.8224 0.3030 0.0000
vt 0.8822 0.2625 0.0000
vt 0.8604 0.3127 0.0000
vt 0.9297 0.2930 0.0000
vt 0.8932 0.3338 0.0000
vt 0.8806 0.4110 0.0000
vt 0.8726 0.3901 0.0000
vt 0.8818 0.4331 0.0000
vt 0.8766 0.4536 0.0000
vt 0.8659 0.4674 0.0000
vt 0.7759 0.3635 0.0000
vt 0.7633 0.3757 0.0000
vt 0.7958 0.3561 0.0000
vt 0.8179 0.3548 0.0000
vt 0.8396 0.3605 0.0000
vt 0.8585 0.3726 0.0000
vt 0.1518 0.4601 0.0000
vt 0.1410 0.4708 0.0000
vt 0.0462 0.3754 0.0000
vt 0.0570 0.3646 0.0000
vt 0.1302 0.4815 0.0000
vt 0.0354 0.3861 0.0000
vt 0.1194 0.4922 0.0000
vt 0.0246 0.3968 0.0000
vt 0.1086 0.5030 0.0000
vt 0.0138 0.4076 0.0000
vt 0.2166 0.3957 0.0000
vt 0.2058 0.4064 0.0000
vt 0.1110 0.3110 0.0000
vt 0.1218 0.3003 0.0000
vt 0.1950 0.4171 0.0000
vt 0.1002 0.3217 0.0000
vt 0.1842 0.4279 0.0000
vt 0.0894 0.3325 0.0000
vt 0.1734 0.4386 0.0000
vt 0.0786 0.3432 0.0000
vt 0.1626 0.4493 0.0000
vt 0.0678 0.3539 0.0000
vt 0.9258 0.9422 0.0000
vt 0.9481 0.9350 0.0000
vt 0.9528 0.9495 0.0000
vt 0.9305 0.9567 0.0000
vt 0.9429 0.9657 0.0000
vt 0.9581 0.9657 0.0000
vt 0.9305 0.9278 0.0000
vt 0.9429 0.9188 0.0000
vt 0.9704 0.9278 0.0000
vt 0.9751 0.9422 0.0000
vt 0.9704 0.9567 0.0000
vt 0.9581 0.9188 0.0000
# 158 texture coords

g Sphere001
s 1
f 1/1/1 2/2/2 3/3/3 4/4/4 
f 2/2/2 5/5/5 6/6/6 3/3/3 
f 5/5/5 7/7/7 8/8/8 6/6/6 
f 7/7/7 9/9/9 10/10/10 8/8/8 
f 9/11/9 11/12/11 12/13/12 10/14/10 
f 11/12/11 13/15/13 14/16/14 12/13/12 
f 13/15/13 15/17/15 16/18/16 14/16/14 
f 15/17/15 17/19/17 18/20/18 16/18/16 
f 17/19/17 19/21/19 20/22/20 18/20/18 
f 19/21/19 1/1/1 4/4/4 20/22/20 
f 21/23/21 22/24/22 23/25/23 24/26/24 
f 22/24/22 25/27/25 26/28/26 23/25/23 
f 25/27/25 27/29/27 28/30/28 26/28/26 
f 27/29/27 29/31/29 30/32/30 28/30/28 
f 29/33/29 31/34/31 32/35/32 30/36/30 
f 31/34/31 33/37/33 34/38/34 32/35/32 
f 33/37/33 35/39/35 36/40/36 34/38/34 
f 35/39/35 37/41/37 38/42/38 36/40/36 
f 37/41/37 39/43/39 40/44/40 38/42/38 
f 39/43/39 21/23/21 24/26/24 40/44/40 
f 41/45/41 42/46/42 43/47/43 44/48/44 
f 42/46/42 45/49/45 46/50/46 43/47/43 
f 45/49/45 47/51/47 48/52/48 46/50/46 
f 47/51/47 49/53/49 50/54/50 48/52/48 
f 49/55/49 51/56/51 52/57/52 50/58/50 
f 51/56/51 53/59/53 54/60/54 52/57/52 
f 53/59/53 55/61/55 56/62/56 54/60/54 
f 55/61/55 57/63/57 58/64/58 56/62/56 
f 57/63/57 59/65/59 60/66/60 58/64/58 
f 59/65/59 41/45/41 44/48/44 60/66/60 
s off
f 61/67/61 62/68/61 63/69/61 64/70/61 
f 65/71/62 66/72/62 62/68/62 61/67/62 
f 67/73/63 64/70/63 63/69/63 68/74/63 
f 69/75/64 70/76/64 63/77/64 62/68/64 
f 71/78/65 69/75/65 62/68/65 66/72/65 
f 63/77/66 70/76/66 72/79/66 68/80/66 
f 4/4/67 3/3/67 73/81/67 74/82/67 
f 3/3/68 6/6/68 75/83/68 73/81/68 
f 6/6/69 8/8/69 76/84/69 75/83/69 
f 8/8/70 10/10/70 77/85/70 76/84/70 
f 10/14/71 12/13/71 78/86/71 77/87/71 
f 12/13/72 14/16/72 79/88/72 78/86/72 
f 14/16/73 16/18/73 80/89/73 79/88/73 
f 16/18/74 18/20/74 81/90/74 80/89/74 
f 18/20/75 20/22/75 82/91/75 81/90/75 
f 20/22/76 4/4/76 74/82/76 82/91/76 
f 74/92/77 73/93/77 83/94/77 84/95/77 
f 73/93/78 75/96/78 85/97/78 83/94/78 
f 75/96/79 76/98/79 86/99/79 85/97/79 
f 76/98/80 77/100/80 87/101/80 86/99/80 
f 77/102/81 78/103/81 88/104/81 87/105/81 
f 78/103/82 79/106/82 89/107/82 88/104/82 
f 79/106/83 80/108/83 90/109/83 89/107/83 
f 80/108/84 81/110/84 91/111/84 90/109/84 
f 81/110/85 82/112/85 92/113/85 91/111/85 
f 82/112/86 74/92/86 84/95/86 92/113/86 
f 84/95/87 83/94/87 93/114/87 94/115/87 
f 83/94/87 85/97/87 95/116/87 93/114/87 
f 85/97/87 86/99/87 96/117/87 95/116/87 
f 86/99/88 87/101/88 97/118/88 96/117/88 
f 87/105/88 88/104/88 98/119/88 97/120/88 
f 88/104/89 89/107/89 99/121/89 98/119/89 
f 89/107/89 90/109/89 100/122/89 99/121/89 
f 90/109/90 91/111/90 101/123/90 100/122/90 
f 91/111/90 92/113/90 102/124/90 101/123/90 
f 92/113/90 84/95/90 94/115/90 102/124/90 
f 94/125/91 93/126/91 103/127/91 104/128/91 
f 93/126/92 95/129/92 105/130/92 103/127/92 
f 95/129/93 96/131/93 106/132/93 105/130/93 
f 96/131/94 97/133/94 107/134/94 106/132/94 
f 97/135/95 98/136/95 108/137/95 107/138/95 
f 98/136/96 99/139/96 109/140/96 108/137/96 
f 99/139/97 100/141/97 110/142/97 109/140/97 
f 100/141/98 101/143/98 111/144/98 110/142/98 
f 101/143/99 102/145/99 112/146/99 111/144/99 
f 102/145/100 94/125/100 104/128/100 112/146/100 
f 108/147/88 113/148/88 114/149/88 107/150/88 
f 106/151/88 107/150/88 114/149/88 105/152/88 
f 109/153/88 110/154/88 113/148/88 108/147/88 
f 112/155/88 104/156/88 114/149/88 113/148/88 
f 114/149/88 104/156/88 103/157/88 105/152/88 
f 111/158/88 112/155/88 113/148/88 110/154/88 
s 1
f 44/48/44 43/47/43 22/24/22 21/23/21 
f 43/47/43 46/50/46 25/27/25 22/24/22 
f 46/50/46 48/52/48 27/29/27 25/27/25 
f 48/52/48 50/54/50 29/31/29 27/29/27 
f 50/58/50 52/57/52 31/34/31 29/33/29 
f 52/57/52 54/60/54 33/37/33 31/34/31 
f 54/60/54 56/62/56 35/39/35 33/37/33 
f 56/62/56 58/64/58 37/41/37 35/39/35 
f 58/64/58 60/66/60 39/43/39 37/41/37 
f 60/66/60 44/48/44 21/23/21 39/43/39 
f 65/71/101 61/67/102 42/46/42 41/45/41 
f 61/67/102 64/70/103 45/49/45 42/46/42 
f 64/70/103 67/73/104 47/51/47 45/49/45 
f 67/73/104 68/74/105 49/53/49 47/51/47 
f 68/80/105 72/79/106 51/56/51 49/55/49 
f 72/79/106 70/76/107 53/59/53 51/56/51 
f 70/76/107 69/75/108 55/61/55 53/59/53 
f 69/75/108 71/78/109 57/63/57 55/61/55 
f 71/78/109 66/72/110 59/65/59 57/63/57 
f 66/72/110 65/71/101 41/45/41 59/65/59 
f 24/26/24 23/25/23 2/2/2 1/1/1 
f 23/25/23 26/28/26 5/5/5 2/2/2 
f 26/28/26 28/30/28 7/7/7 5/5/5 
f 28/30/28 30/32/30 9/9/9 7/7/7 
f 30/36/30 32/35/32 11/12/11 9/11/9 
f 32/35/32 34/38/34 13/15/13 11/12/11 
f 34/38/34 36/40/36 15/17/15 13/15/13 
f 36/40/36 38/42/38 17/19/17 15/17/15 
f 38/42/38 40/44/40 19/21/19 17/19/17 
f 40/44/40 24/26/24 1/1/1 19/21/19 
# 112 polygons

